<svg id="eDHXC2jwBP51" xmlns="http://www.w3.org/2000/svg" xmlns:xlink="http://www.w3.org/1999/xlink" viewBox="0 0 800 600" shape-rendering="geometricPrecision" text-rendering="geometricPrecision"><style><![CDATA[#eDHXC2jwBP57_to {animation: eDHXC2jwBP57_to__to 2000ms linear infinite normal forwards}@keyframes eDHXC2jwBP57_to__to { 0% {transform: translate(450px,-78.713792px)} 50% {transform: translate(500px,-78.713792px);animation-timing-function: cubic-bezier(0.42,0,0.58,1)} 100% {transform: translate(450px,-78.713792px)}} #eDHXC2jwBP523_to {animation: eDHXC2jwBP523_to__to 2000ms linear infinite normal forwards}@keyframes eDHXC2jwBP523_to__to { 0% {transform: translate(160px,22.617399px);animation-timing-function: cubic-bezier(0.42,0,0.58,1)} 50% {transform: translate(210px,22.617399px);animation-timing-function: cubic-bezier(0.42,0,0.58,1)} 100% {transform: translate(160px,22.617399px)}}]]></style><g id="eDHXC2jwBP52" transform="matrix(0.787827 0 0 0.787827 -56.976299 122.738998)" clip-rule="evenodd"><g id="eDHXC2jwBP53" clip-rule="evenodd"><g id="eDHXC2jwBP54" clip-rule="evenodd"><g id="eDHXC2jwBP55" transform="matrix(0.533366 0 0 0.546357 335.752991 -85.792999)" clip-rule="evenodd"><path id="eDHXC2jwBP56" d="M141.549,479L141.549,422.246L264.248,422.246L264.248,308.739L141.549,308.739L141.549,245.996C141.185,240.722,141,235.382,141,230C141,103.06,244.06,0,371,0C497.94,0,601,103.06,601,230L601,304.214C578.068,313.324,561.904,335.31,561.904,360.953C561.904,386.595,578.068,408.581,601,417.691L601,479" clip-rule="evenodd" fill="none" fill-rule="evenodd" stroke="rgb(2,46,199)" stroke-width="44.549999" stroke-linecap="round" stroke-linejoin="round" stroke-miterlimit="1.5"/></g><g id="eDHXC2jwBP57_to" transform="translate(450,-78.713792)"><g id="eDHXC2jwBP57" transform="scale(0.620154,0.620154) translate(0,0)" clip-rule="evenodd"><path id="eDHXC2jwBP58" d="M624.625,255.013C630.904,252.417,637.788,251,645,251C674.803,251,699,275.197,699,305C699,334.803,674.803,359,645,359C637.788,359,630.904,357.583,624.625,354.987" clip-rule="evenodd" fill="none" fill-rule="evenodd" stroke="rgb(2,46,199)" stroke-width="38.790001" stroke-linecap="round" stroke-linejoin="round" stroke-miterlimit="1.5"/><g id="eDHXC2jwBP59" transform="matrix(1 0 0 1 -198 0)" clip-rule="evenodd"><circle id="eDHXC2jwBP510" r="54" transform="matrix(1 0 0 1 645 305)" clip-rule="evenodd" fill="none" fill-rule="evenodd" stroke="rgb(2,46,199)" stroke-width="38.790001" stroke-linecap="round" stroke-linejoin="round" stroke-miterlimit="1.5"/></g><path id="eDHXC2jwBP511" d="M501,305L591,305" clip-rule="evenodd" fill="none" fill-rule="evenodd" stroke="rgb(2,46,199)" stroke-width="38.790001" stroke-linecap="round" stroke-linejoin="round" stroke-miterlimit="1.5"/></g></g><g id="eDHXC2jwBP512" transform="matrix(0.55 0 0 0.54 352.917999 114.306999)" clip-rule="evenodd"><g id="eDHXC2jwBP513" transform="matrix(1 0 0 1 -102.472 -139)" clip-rule="evenodd"><path id="eDHXC2jwBP514" d="M209.472,355L209.472,533.736C209.472,558.166,229.306,578,253.736,578C278.166,578,298,558.166,298,533.736L298,456" clip-rule="evenodd" fill="none" fill-rule="evenodd" stroke="rgb(2,46,199)" stroke-width="44.09" stroke-linecap="round" stroke-linejoin="round" stroke-miterlimit="1.5"/></g><g id="eDHXC2jwBP515" transform="matrix(1 0 0 -1 -13.9443 848)" clip-rule="evenodd"><path id="eDHXC2jwBP516" d="M209.472,456L209.472,527.736C209.472,552.166,229.306,572,253.736,572C278.166,572,298,552.166,298,527.736" clip-rule="evenodd" fill="none" fill-rule="evenodd" stroke="rgb(2,46,199)" stroke-width="44.09" stroke-linecap="round" stroke-linejoin="round" stroke-miterlimit="1.5"/></g><g id="eDHXC2jwBP517" transform="matrix(1 0 0 1 74.583603 -133)" clip-rule="evenodd"><path id="eDHXC2jwBP518" d="M209.472,456L209.472,572C209.472,596.43,229.306,616.264,253.736,616.264C278.166,616.264,298,596.43,298,572L298,456" clip-rule="evenodd" fill="none" fill-rule="evenodd" stroke="rgb(2,46,199)" stroke-width="44.09" stroke-linecap="round" stroke-linejoin="round" stroke-miterlimit="1.5"/></g><g id="eDHXC2jwBP519" transform="matrix(1 0 0 1 251.639008 -133)" clip-rule="evenodd"><path id="eDHXC2jwBP520" d="M209.472,456L209.472,527.736C209.472,552.166,229.306,572,253.736,572C278.166,572,298,552.166,298,527.736L298,339.278" clip-rule="evenodd" fill="none" fill-rule="evenodd" stroke="rgb(2,46,199)" stroke-width="44.09" stroke-linecap="round" stroke-linejoin="round" stroke-miterlimit="1.5"/></g><g id="eDHXC2jwBP521" transform="matrix(1 0 0 -1 163.110992 854)" clip-rule="evenodd"><path id="eDHXC2jwBP522" d="M209.472,456L209.472,527.736C209.472,552.166,229.306,572,253.736,572C278.166,572,298,552.166,298,527.736" clip-rule="evenodd" fill="none" fill-rule="evenodd" stroke="rgb(2,46,199)" stroke-width="44.09" stroke-linecap="round" stroke-linejoin="round" stroke-miterlimit="1.5"/></g></g></g></g></g><g id="eDHXC2jwBP523_to" transform="translate(160,22.617399)"><g id="eDHXC2jwBP523" transform="scale(0.488574,0.488574) translate(0,0)" clip-rule="evenodd"><path id="eDHXC2jwBP524" d="M92.472,337L34,337L34,437L92.472,437" clip-rule="evenodd" fill="none" fill-rule="evenodd" stroke="rgb(2,46,199)" stroke-width="38.790001" stroke-linecap="round" stroke-linejoin="round" stroke-miterlimit="1.5"/></g></g></svg>