<svg width="32" height="32" viewBox="0 0 32 32" fill="none" xmlns="http://www.w3.org/2000/svg">
<path d="M9.33332 25.3333C10.8061 25.3333 12 24.1394 12 22.6667C12 21.1939 10.8061 20 9.33332 20C7.86056 20 6.66666 21.1939 6.66666 22.6667C6.66666 24.1394 7.86056 25.3333 9.33332 25.3333Z" stroke="black" stroke-width="2.66667" stroke-linecap="round" stroke-linejoin="round"/>
<path d="M22.6667 25.3333C24.1394 25.3333 25.3333 24.1394 25.3333 22.6667C25.3333 21.1939 24.1394 20 22.6667 20C21.1939 20 20 21.1939 20 22.6667C20 24.1394 21.1939 25.3333 22.6667 25.3333Z" stroke="black" stroke-width="2.66667" stroke-linecap="round" stroke-linejoin="round"/>
<path d="M6.66667 22.6667H4V8.00001C4 7.64638 4.14048 7.30724 4.39052 7.0572C4.64057 6.80715 4.97971 6.66667 5.33333 6.66667H17.3333V22.6667V14.6667H28M12 22.6667H20M25.3333 22.6667H28V14.6667M28 14.6667L24 8.00001H17.3333" stroke="black" stroke-width="2.66667" stroke-linecap="round" stroke-linejoin="round"/>
<path d="M10.6667 10.6667V16M8 13.3333H13.3333H8Z" stroke="black" stroke-width="2.66667" stroke-linecap="round" stroke-linejoin="round"/>
</svg>
